# File created by Blade
# Date/Time:  Wed Jan 21 14:43:55 2015
# Frame Rate: 120.000 fps
#------------------------------------------------------
:FULLY-SPECIFIED
:DEGREES
626
root 15.165603 35.277773 -19.611473 -173.124885 -13.822143 171.049357
Spine -4.313302 -9.605759 46.410502
Head -5.973970 7.701746 23.165501
LeftShoulder -11.004801 -9.055336 10.406462
LeftArm -74.010017 73.018291 -138.143127
LeftForeArm 37.271562 -0.000000 84.348786
LeftHand 5.452536 -0.000000 26.517993
LeftHandThumb1 -26.253704 0.000000 33.147579
RightShoulder -13.314933 -30.599106 -2.632905
RightArm 17.021299 -42.309288 30.831825
RightForeArm -51.327226 -0.000000 126.427361
RightHand 0.506248 -0.000000 -15.355607
RightHandThumb1 -24.326973 -0.000000 -32.862282
LeftUpLeg 0.356534 2.400961 -12.491469
LeftLeg -5.449825 -0.000000 0.000000
LeftFoot -15.761424 20.870203 -11.728005
LeftToeBase 26.170453 -0.000000 -0.000000
RightUpLeg 5.235039 -18.894151 -17.910130
RightLeg -4.638742 -0.000000 0.000000
RightFoot -20.727058 -25.537123 17.047948
RightToeBase 26.834901 -0.000000 -0.000000
627
root 15.125197 35.273574 -19.612952 -173.075866 -14.024097 170.942477
Spine -4.476760 -9.613248 46.695572
Head -6.001679 7.675333 23.280956
LeftShoulder -11.003249 -9.051007 10.481882
LeftArm -74.005665 72.988109 -138.322773
LeftForeArm 37.521962 0.000000 84.215121
LeftHand 5.288707 -0.000000 26.632325
LeftHandThumb1 -26.253704 0.000000 33.147579
RightShoulder -13.320497 -30.648500 -2.640586
RightArm 16.987891 -42.182612 30.886136
RightForeArm -51.361595 -0.000000 126.616741
RightHand 0.393328 -0.000000 -15.095156
RightHandThumb1 -24.326973 -0.000000 -32.862282
LeftUpLeg 0.386012 2.317251 -12.633153
LeftLeg -5.471020 -0.000000 0.000000
LeftFoot -15.724672 20.735115 -11.754484
LeftToeBase 26.245738 -0.000000 -0.000000
RightUpLeg 5.328229 -18.992171 -18.080080
RightLeg -4.634840 -0.000000 0.000000
RightFoot -20.761754 -25.615129 17.109346
RightToeBase 26.758847 -0.000000 -0.000000
628
root 15.087150 35.268537 -19.615392 -173.020891 -14.234508 170.826314
Spine -4.648021 -9.609990 46.962588
Head -6.015187 7.694796 23.381494
LeftShoulder -10.968643 -9.246098 10.553143
LeftArm -74.241852 72.771332 -138.637258
LeftForeArm 37.651829 -0.000000 84.116545
LeftHand 5.430757 -0.000000 26.530273
LeftHandThumb1 -26.253704 0.000000 33.147579
RightShoulder -13.374595 -30.670237 -2.598458
RightArm 17.009469 -42.093831 30.905531
RightForeArm -51.507556 0.000000 126.834788
RightHand 0.211376 -0.000000 -14.794849
RightHandThumb1 -24.326973 -0.000000 -32.862282
LeftUpLeg 0.436673 2.156559 -12.779909
LeftLeg -5.530493 -0.000000 0.000000
LeftFoot -15.675601 20.687862 -11.810565
LeftToeBase 26.184437 -0.000000 -0.000000
RightUpLeg 5.444982 -19.034334 -18.253492
RightLeg -4.672773 -0.000000 0.000000
RightFoot -20.815971 -25.750647 17.166224
RightToeBase 26.793594 -0.000000 -0.000000
629
root 15.050643 35.262967 -19.618420 -172.985816 -14.446390 170.724142
Spine -4.795131 -9.639919 47.227671
Head -6.100255 7.687805 23.508137
LeftShoulder -10.991841 -9.302081 10.637153
LeftArm -74.262978 72.692405 -138.804165
LeftForeArm 37.769398 -0.000000 83.996884
LeftHand 5.570351 -0.000000 26.464842
LeftHandThumb1 -26.253704 0.000000 33.147579
RightShoulder -13.386422 -30.598715 -2.593084
RightArm 16.921777 -42.069827 30.980260
RightForeArm -51.496795 -0.000000 126.921212
RightHand 0.480624 0.000000 -14.909877
RightHandThumb1 -24.326973 -0.000000 -32.862282
LeftUpLeg 0.459482 2.092067 -12.905278
LeftLeg -5.506077 -0.000000 0.000000
LeftFoot -15.650351 20.519313 -11.779617
LeftToeBase 26.181457 -0.000000 -0.000000
RightUpLeg 5.561885 -19.092953 -18.414659
RightLeg -4.675307 -0.000000 0.000000
RightFoot -20.883388 -25.873222 17.242464
RightToeBase 26.782270 -0.000000 -0.000000
630
root 15.009878 35.259152 -19.623927 -172.942156 -14.654265 170.606932
Spine -4.962971 -9.632491 47.482262
Head -6.127186 7.651335 23.608193
LeftShoulder -10.998160 -9.242113 10.691978
LeftArm -74.163939 72.717310 -138.866881
LeftForeArm 37.799350 -0.000000 83.888061
LeftHand 5.613527 -0.000000 26.498362
LeftHandThumb1 -26.253704 0.000000 33.147579
RightShoulder -13.421533 -30.603074 -2.607104
RightArm 16.934494 -42.019044 31.033150
RightForeArm -51.553956 -0.000000 127.045135
RightHand 0.327173 -0.000000 -14.937037
RightHandThumb1 -24.326973 -0.000000 -32.862282
LeftUpLeg 0.497034 2.043028 -13.052040
LeftLeg -5.506639 -0.000000 0.000000
LeftFoot -15.604899 20.337620 -11.815475
LeftToeBase 26.173649 -0.000000 -0.000000
RightUpLeg 5.668054 -19.168031 -18.601278
RightLeg -4.652048 -0.000000 0.000000
RightFoot -20.957769 -25.938052 17.344827
RightToeBase 26.799967 -0.000000 -0.000000
631
root 14.974204 35.254274 -19.627806 -172.936882 -14.851534 170.503965
Spine -5.077270 -9.630993 47.696633
Head -6.210713 7.628131 23.820559
LeftShoulder -10.938467 -9.333434 10.783098
LeftArm -74.176820 72.547742 -139.020515
LeftForeArm 37.832301 -0.000000 83.798062
LeftHand 5.666220 -0.000000 26.393564
LeftHandThumb1 -26.253704 0.000000 33.147579
RightShoulder -13.412595 -30.585263 -2.571440
RightArm 16.827002 -41.878156 31.113813
RightForeArm -51.669866 -0.000000 127.230834
RightHand 0.413755 0.000000 -14.772215
RightHandThumb1 -24.326973 -0.000000 -32.862282
LeftUpLeg 0.556681 1.971415 -13.177838
LeftLeg -5.495147 -0.000000 0.000000
LeftFoot -15.574656 20.210725 -11.796646
LeftToeBase 26.210707 -0.000000 -0.000000
RightUpLeg 5.796416 -19.183150 -18.768189
RightLeg -4.632641 -0.000000 0.000000
RightFoot -21.035838 -26.084719 17.422789
RightToeBase 26.746330 -0.000000 -0.000000
632
root 14.941858 35.249475 -19.634094 -172.939256 -15.126046 170.403877
Spine -5.190149 -9.685878 47.924064
Head -6.442509 7.643690 23.988790
LeftShoulder -11.007452 -9.468402 10.876624
LeftArm -74.500049 72.489278 -139.457884
LeftForeArm 37.838020 0.000000 83.719897
LeftHand 5.763390 -0.000000 26.307540
LeftHandThumb1 -26.253704 0.000000 33.147579
RightShoulder -13.559794 -30.521350 -2.437931
RightArm 16.905466 -41.789593 30.969655
RightForeArm -51.600725 0.000000 127.324865
RightHand 0.652954 0.000000 -14.724594
RightHandThumb1 -24.326973 -0.000000 -32.862282
LeftUpLeg 0.631162 1.801298 -13.284818
LeftLeg -5.478877 -0.000000 0.000000
LeftFoot -15.549588 20.122046 -11.778528
LeftToeBase 26.248906 -0.000000 -0.000000
RightUpLeg 5.986949 -19.333022 -18.937032
RightLeg -4.638397 -0.000000 0.000000
RightFoot -21.086594 -26.167594 17.451900
RightToeBase 26.774398 -0.000000 -0.000000
633
root 14.908866 35.245673 -19.642731 -172.937912 -15.329364 170.308796
Spine -5.323896 -9.710968 48.147869
Head -6.492048 7.659311 24.144902
LeftShoulder -10.994784 -9.472878 10.935632
LeftArm -74.488811 72.404825 -139.560428
LeftForeArm 37.845997 0.000000 83.646774
LeftHand 5.797070 -0.000000 26.147848
LeftHandThumb1 -26.253704 0.000000 33.147579
RightShoulder -13.595428 -30.505904 -2.446364
RightArm 17.016612 -41.771576 30.937634
RightForeArm -51.531510 0.000000 127.520504
RightHand -0.099703 -0.000000 -14.689116
RightHandThumb1 -24.326973 -0.000000 -32.862282
LeftUpLeg 0.700823 1.722491 -13.395823
LeftLeg -5.467476 -0.000000 0.000000
LeftFoot -15.521765 19.994496 -11.792449
LeftToeBase 26.248775 -0.000000 -0.000000
RightUpLeg 6.136198 -19.429078 -19.097590
RightLeg -4.632095 -0.000000 0.000000
RightFoot -21.141839 -26.232940 17.540003
RightToeBase 26.751415 -0.000000 -0.000000
634
root 14.877223 35.242096 -19.651144 -172.953301 -15.539528 170.207862
Spine -5.435449 -9.734083 48.340763
Head -6.573027 7.589801 24.320737
LeftShoulder -10.990506 -9.466295 10.981025
LeftArm -74.551638 72.388419 -139.738867
LeftForeArm 37.776503 -0.000000 83.554732
LeftHand 5.831972 -0.000000 26.225553
LeftHandThumb1 -26.253704 0.000000 33.147579
RightShoulder -13.591298 -30.498393 -2.437424
RightArm 16.966015 -41.727828 31.031373
RightForeArm -51.687389 -0.000000 127.625313
RightHand -0.315840 -0.000000 -14.500707
RightHandThumb1 -24.326973 -0.000000 -32.862282
LeftUpLeg 0.786970 1.630558 -13.509009
LeftLeg -5.450987 -0.000000 0.000000
LeftFoot -15.504170 19.879936 -11.808614
LeftToeBase 26.314765 -0.000000 -0.000000
RightUpLeg 6.314593 -19.543497 -19.265831
RightLeg -4.643615 -0.000000 0.000000
RightFoot -21.169277 -26.310885 17.587308
RightToeBase 26.697710 -0.000000 -0.000000
635
root 14.847729 35.238817 -19.659642 -172.972095 -15.739879 170.117320
Spine -5.535093 -9.762254 48.532780
Head -6.653436 7.608965 24.509546
LeftShoulder -11.013597 -9.477644 11.044361
LeftArm -74.639243 72.346320 -139.938247
LeftForeArm 37.714369 0.000000 83.474914
LeftHand 5.873801 -0.000000 26.243503
LeftHandThumb1 -26.253704 0.000000 33.147579
RightShoulder -13.574403 -30.435531 -2.430806
RightArm 16.852911 -41.691627 31.127492
RightForeArm -51.776916 -0.000000 127.734186
RightHand -0.174988 -0.000000 -14.403368
RightHandThumb1 -24.326973 -0.000000 -32.862282
LeftUpLeg 0.868383 1.530561 -13.609644
LeftLeg -5.428857 -0.000000 0.000000
LeftFoot -15.485889 19.785797 -11.826343
LeftToeBase 26.251550 -0.000000 -0.000000
RightUpLeg 6.475972 -19.645010 -19.419899
RightLeg -4.628021 -0.000000 0.000000
RightFoot -21.214475 -26.384996 17.615361
RightToeBase 26.706095 -0.000000 -0.000000
636
root 14.818931 35.234915 -19.671989 -173.013782 -15.974770 170.032125
Spine -5.661799 -9.802607 48.709315
Head -6.740787 7.512069 24.725089
LeftShoulder -10.973898 -9.488631 11.113485
LeftArm -74.676065 72.249441 -140.081087
LeftForeArm 37.704447 -0.000000 83.403302
LeftHand 5.963995 -0.000000 26.206645
LeftHandThumb1 -26.253704 0.000000 33.147579
RightShoulder -13.627020 -30.454053 -2.396121
RightArm 16.869612 -41.601503 31.122516
RightForeArm -51.841978 -0.000000 127.844841
RightHand -0.254446 -0.000000 -14.177063
RightHandThumb1 -24.326973 -0.000000 -32.862282
LeftUpLeg 0.981240 1.391274 -13.698085
LeftLeg -5.405094 -0.000000 0.000000
LeftFoot -15.487987 19.704140 -11.835993
LeftToeBase 26.272968 -0.000000 -0.000000
RightUpLeg 6.685554 -19.788190 -19.577032
RightLeg -4.618574 -0.000000 0.000000
RightFoot -21.279941 -26.428796 17.693112
RightToeBase 26.696742 -0.000000 -0.000000
637
root 14.792027 35.232503 -19.683129 -173.051784 -16.158636 169.962985
Spine -5.761680 -9.782233 48.899397
Head -6.819826 7.372908 24.886428
LeftShoulder -10.942240 -9.393264 11.138587
LeftArm -74.607963 72.303064 -140.118940
LeftForeArm 37.607512 0.000000 83.335449
LeftHand 6.066847 -0.000000 26.284370
LeftHandThumb1 -26.253704 0.000000 33.147579
RightShoulder -13.702251 -30.506726 -2.381130
RightArm 16.923672 -41.506658 31.150244
RightForeArm -51.887835 -0.000000 127.916422
RightHand -0.260014 -0.000000 -14.038535
RightHandThumb1 -24.326973 -0.000000 -32.862282
LeftUpLeg 1.072264 1.317372 -13.776930
LeftLeg -5.371312 -0.000000 0.000000
LeftFoot -15.486281 19.617237 -11.829840
LeftToeBase 26.292441 -0.000000 -0.000000
RightUpLeg 6.846439 -19.866704 -19.711143
RightLeg -4.584803 -0.000000 0.000000
RightFoot -21.347059 -26.486157 17.791865
RightToeBase 26.658561 -0.000000 -0.000000
638
root 14.765013 35.228342 -19.693389 -173.081996 -16.325930 169.873685
Spine -5.817529 -9.766619 49.030125
Head -6.929117 7.442265 25.120876
LeftShoulder -10.948957 -9.459628 11.230051
LeftArm -74.682641 72.198242 -140.278931
LeftForeArm 37.526697 0.000000 83.286024
LeftHand 6.120783 -0.000000 26.168026
LeftHandThumb1 -26.253704 0.000000 33.147579
RightShoulder -13.733571 -30.398120 -2.366741
RightArm 16.819849 -41.555408 31.255346
RightForeArm -51.803339 -0.000000 127.993197
RightHand -0.134675 -0.000000 -14.115415
RightHandThumb1 -24.326973 -0.000000 -32.862282
LeftUpLeg 1.154333 1.264183 -13.876379
LeftLeg -5.330656 -0.000000 0.000000
LeftFoot -15.476070 19.515135 -11.840700
LeftToeBase 26.245596 -0.000000 -0.000000
RightUpLeg 6.999206 -19.999281 -19.869853
RightLeg -4.549502 -0.000000 0.000000
RightFoot -21.398930 -26.479785 17.812342
RightToeBase 26.625233 -0.000000 -0.000000
